Coordinates
version=1
nRows=12
nColumns=24
inDegrees=yes

Units are S.I. units (second, meters, Newtons, ...)
Angles are in degrees.

endheader
time	pelvis_tilt	pelvis_list	pelvis_rotation	pelvis_tx	pelvis_ty	pelvis_tz	hip_flexion_r	hip_adduction_r	hip_rotation_r	knee_angle_r	ankle_angle_r	subtalar_angle_r	mtp_angle_r	hip_flexion_l	hip_adduction_l	hip_rotation_l	knee_angle_l	ankle_angle_l	subtalar_angle_l	mtp_angle_l	lumbar_extension	lumbar_bending	lumbar_rotation
      0.84600000	      0.62828377	      4.76416763	     -2.38541228	     -0.47437264	      1.02341591	      0.32053694	      8.65260661	     -1.05924396	      0.32774771	    -16.28683800	      7.58919497	     -9.11898300	      6.34056732	     15.15815377	      2.36600100	     -7.38302746	    -65.46353246	     -1.07769012	    -20.08941588	      0.07151985	     -3.90560777	     -4.97813250	      4.36484035
      0.85016667	      0.61767715	      4.85520609	     -2.59439796	     -0.46927177	      1.02404601	      0.32113167	      8.20691714	     -1.14826711	      0.38889670	    -15.94843326	      7.66990033	     -8.93560198	      6.36098257	     15.64349130	      2.43786849	     -7.57288469	    -65.01862645	     -0.79382643	    -19.45732523	      0.16532343	     -3.88138920	     -5.07053026	      4.70372452
      0.85433333	      0.59231809	      4.93917598	     -2.79551837	     -0.46420278	      1.02460524	      0.32172253	      7.77491733	     -1.22926049	      0.45908173	    -15.60233112	      7.75917002	     -8.75026691	      6.38593956	     16.14222101	      2.49825247	     -7.75417794	    -64.54438478	     -0.51261160	    -18.80425179	      0.29208743	     -3.86217870	     -5.17253359	      5.08570118
      0.85850000	      0.59239869	      5.02761337	     -3.00354310	     -0.45913552	      1.02516854	      0.32230438	      7.31869856	     -1.32003707	      0.52247073	    -15.25907163	      7.83986129	     -8.56521488	      6.41147492	     16.59576906	      2.56269778	     -7.93923154	    -64.01344625	     -0.24138023	    -18.12625404	      0.43394129	     -3.86297089	     -5.27163864	      5.44045779
      0.86266667	      0.58326476	      5.10564314	     -3.20503898	     -0.45408269	      1.02565487	      0.32286697	      6.87360626	     -1.40097755	      0.59028845	    -14.91939423	      7.92547420	     -8.38560805	      6.44092620	     17.05151174	      2.61437499	     -8.11751281	    -63.44956131	      0.03041155	    -17.44236193	      0.61210287	     -3.85222245	     -5.34938963	      5.80744351
      0.86683333	      0.59123930	      5.18263091	     -3.41111627	     -0.44904320	      1.02612828	      0.32342926	      6.41248141	     -1.48437059	      0.65110156	    -14.58003458	      8.01090518	     -8.21599218	      6.46703741	     17.47555830	      2.66328790	     -8.29841973	    -62.84065196	      0.29949423	    -16.73739722	      0.78346258	     -3.86333332	     -5.43819386	      6.13587575
      0.87100000	      0.59736360	      5.23942573	     -3.61579217	     -0.44399405	      1.02655936	      0.32397946	      5.94396471	     -1.54731280	      0.71553479	    -14.22067147	      8.03694643	     -8.07896604	      6.52643217	     17.88744239	      2.68516917	     -8.48117889	    -62.19397264	      0.52519116	    -16.06898264	      1.23087689	     -3.86382352	     -5.49068276	      6.61444454
      0.87516667	      0.57622949	      5.29337958	     -3.80632494	     -0.43897399	      1.02689435	      0.32450153	      5.51117058	     -1.60816880	      0.77504051	    -13.87534053	      8.09832775	     -7.91939182	      6.58421032	     18.32353046	      2.70694020	     -8.64327898	    -61.51861351	      0.77603576	    -15.36221625	      1.70101122	     -3.84592742	     -5.54338796	      6.93292998
      0.87933333	      0.55165971	      5.36678207	     -3.99853718	     -0.43396782	      1.02716928	      0.32501412	      5.10043663	     -1.69088437	      0.84814747	    -13.56994272	      8.24078715	     -7.77468379	      6.60604702	     18.74941545	      2.75338248	     -8.80434218	    -60.79774653	      1.04344378	    -14.67855187	      1.87414679	     -3.82926726	     -5.62839697	      7.13024881
      0.88350000	      0.54645161	      5.41356230	     -4.18504880	     -0.42896926	      1.02742525	      0.32550784	      4.65651947	     -1.74918933	      0.90577009	    -13.23768571	      8.32434844	     -7.63489355	      6.62653535	     19.14187754	      2.77015680	     -8.95864034	    -60.04599860	      1.28585741	    -14.00845392	      2.05621822	     -3.83138860	     -5.67672649	      7.43436611
      0.88766667	      0.50788769	      5.48863404	     -4.36748727	     -0.42397066	      1.02761587	      0.32598673	      4.26065484	     -1.83898030	      0.95774171	    -12.92253077	      8.35489105	     -7.49926665	      6.63863853	     19.55328599	      2.81886514	     -9.11581635	    -59.23161989	      1.44479120	    -13.39987149	      2.17129399	     -3.80172816	     -5.77246734	      7.65397237
      0.89183333	      0.46313769	      5.49163448	     -4.54332119	     -0.41897208	      1.02771824	      0.32647396	      3.84483929	     -1.84222935	      1.07153412	    -12.56795226	      8.40997890	     -7.47219172	      7.03032934	     19.96268697	      2.77805106	     -9.25905332	    -58.42116069	      1.64189799	    -12.81686715	      6.77439556	     -3.74856401	     -5.74901473	      8.06503364
